<svg width="19" height="23" viewBox="0 0 19 23" fill="none" xmlns="http://www.w3.org/2000/svg">
<g id="Group 39">
<path id="Vector" d="M17.9688 9.34375H16.5312V7.1875C16.5312 3.22431 13.3069 0 9.34375 0C5.38056 0 2.15625 3.22431 2.15625 7.1875V9.34375H0.71875C0.321281 9.34375 0 9.66575 0 10.0625V22.2812C0 22.678 0.321281 23 0.71875 23H17.9688C18.3662 23 18.6875 22.678 18.6875 22.2812V10.0625C18.6875 9.66575 18.3662 9.34375 17.9688 9.34375ZM3.59375 7.1875C3.59375 4.01709 6.17334 1.4375 9.34375 1.4375C12.5142 1.4375 15.0938 4.01709 15.0938 7.1875V9.34375H3.59375V7.1875ZM17.25 21.5625H1.4375V10.7812H17.25V21.5625ZM10.7812 15.8125C10.7812 16.3429 10.4909 16.8015 10.0625 17.0509V17.9688C10.0625 18.3655 9.74122 18.6875 9.34375 18.6875C8.94628 18.6875 8.625 18.3655 8.625 17.9688V17.0509C8.19734 16.8022 7.90625 16.3444 7.90625 15.8125C7.90625 15.0183 8.54953 14.375 9.34375 14.375C10.138 14.375 10.7812 15.0183 10.7812 15.8125Z" fill="#5B5959"/>
</g>
</svg>
