<svg width="27" height="18" viewBox="0 0 27 18" fill="none" xmlns="http://www.w3.org/2000/svg">
<g id="Group 37">
<path id="Vector" fill-rule="evenodd" clip-rule="evenodd" d="M2.03375 0H24.8001C25.9196 0 26.8338 0.914531 26.8338 2.03405V15.9663C26.8338 17.0858 25.9196 18 24.8001 18H2.03375C0.914233 18 0 17.0858 0 15.9663V2.03405C0 0.914531 0.914233 0 2.03375 0ZM25.301 17.0577L15.4142 9.43683L13.6702 10.781C13.5163 10.9001 13.305 10.8935 13.1591 10.778L11.4193 9.43683L1.53277 17.0577C1.68554 17.1284 1.85532 17.1681 2.03375 17.1681H24.8001C24.9785 17.1681 25.1483 17.1284 25.301 17.0577ZM16.0937 8.91317L25.8921 16.4657C25.9625 16.3133 26.0019 16.1441 26.0019 15.966V2.03405C26.0019 1.80668 25.9375 1.59334 25.8262 1.41133L16.0937 8.91317ZM0.941683 16.4657L10.7401 8.91317L1.00763 1.41103C0.89633 1.59304 0.83188 1.80639 0.83188 2.03375V15.966C0.83188 16.1441 0.871266 16.3136 0.941683 16.4657ZM1.68315 0.884693L13.4169 9.92915L25.1506 0.884693C25.0396 0.85038 24.9218 0.832178 24.8001 0.832178H2.03375C1.91201 0.83188 1.79415 0.85038 1.68315 0.884693Z" fill="#5B5959"/>
</g>
</svg>
