<svg width="34" height="34" viewBox="0 0 34 34" fill="none" xmlns="http://www.w3.org/2000/svg">
<g id="Group 21">
<path id="Vector" d="M32.531 14.6611L2.70237 0.189152C2.44584 0.0646914 2.16415 0 1.87871 0C0.841133 0 0 0.836587 0 1.86855V1.92248C0 2.17321 0.0309105 2.423 0.092053 2.66625L2.95334 14.0495C3.03149 14.3604 3.29581 14.5901 3.61604 14.6255L16.1923 16.0154C16.6284 16.0635 16.9583 16.4301 16.9583 16.8667C16.9583 17.3032 16.6284 17.6698 16.1923 17.718L3.61604 19.1078C3.29581 19.1432 3.03149 19.3729 2.95334 19.6839L0.092053 31.067C0.0309105 31.3104 0 31.5601 0 31.8108V31.8648C0 32.8967 0.841133 33.7333 1.87871 33.7333C2.16415 33.7333 2.44584 33.6686 2.70237 33.5441L32.531 19.0722C33.3788 18.661 33.9167 17.8049 33.9167 16.8667C33.9167 15.9284 33.3788 15.0724 32.531 14.6611Z" fill="black"/>
</g>
</svg>
