<svg width="34" height="34" viewBox="0 0 34 34" fill="none" xmlns="http://www.w3.org/2000/svg">
<g id="Group 22">
<path id="Vector" d="M23.9915 15.3552H18.645V10.0087C18.645 9.09923 17.9098 8.36398 17.0003 8.36398C16.0908 8.36398 15.3555 9.09923 15.3555 10.0087V15.3552H10.009C9.09951 15.3552 8.36426 16.0905 8.36426 17C8.36426 17.9095 9.09951 18.6447 10.009 18.6447H15.3555V23.9912C15.3555 24.9007 16.0908 25.636 17.0003 25.636C17.9098 25.636 18.645 24.9007 18.645 23.9912V18.6447H23.9915C24.901 18.6447 25.6363 17.9095 25.6363 17C25.6363 16.0905 24.8968 15.3552 23.9915 15.3552Z" fill="black"/>
<path id="Vector_2" d="M17 0C7.6245 0 0 7.6245 0 17C0 26.3755 7.6245 34 17 34C26.3755 34 34 26.3755 34 17C34 7.6245 26.3755 0 17 0ZM17 30.7148C9.43925 30.7148 3.28525 24.565 3.28525 17C3.28525 9.43925 9.435 3.28525 17 3.28525C24.565 3.28525 30.7148 9.43925 30.7148 17C30.7148 24.5608 24.5608 30.7148 17 30.7148Z" fill="black"/>
</g>
</svg>
