<svg width="210" height="253" viewBox="0 0 210 253" fill="none" xmlns="http://www.w3.org/2000/svg">
<g id="Group 23">
<g id="Layer 49">
<path id="Vector" d="M29.1323 200.349L28.1534 192.121C28.1284 191.918 28.1438 191.712 28.1986 191.515C28.2535 191.318 28.3467 191.134 28.4729 190.973C28.5991 190.813 28.7559 190.678 28.9341 190.578C29.1124 190.478 29.3087 190.414 29.5117 190.39C29.7147 190.366 29.9205 190.383 30.1171 190.439C30.3138 190.494 30.4975 190.588 30.6577 190.715C30.8179 190.842 30.9515 191 31.0507 191.179C31.1499 191.357 31.2128 191.554 31.2358 191.757L32.2147 199.985C32.2387 200.187 32.2226 200.392 32.1673 200.589C32.112 200.785 32.0185 200.968 31.8923 201.128C31.766 201.288 31.6095 201.422 31.4316 201.521C31.2537 201.621 31.058 201.684 30.8555 201.708C30.7952 201.716 30.7344 201.72 30.6735 201.72C30.2932 201.72 29.9261 201.581 29.6419 201.328C29.3578 201.075 29.1764 200.727 29.1323 200.349ZM46.664 178.93L46.7813 178.926C46.9848 178.91 47.1832 178.855 47.3653 178.763C47.5474 178.671 47.7095 178.544 47.8425 178.389C47.9755 178.234 48.0766 178.055 48.1403 177.861C48.2039 177.667 48.2287 177.463 48.2133 177.259L47.5864 168.999C47.5793 168.793 47.5295 168.59 47.4402 168.404C47.3508 168.218 47.2238 168.052 47.0671 167.917C46.9105 167.783 46.7277 167.682 46.5302 167.622C46.3327 167.562 46.1249 167.543 45.9198 167.567C45.7164 167.582 45.5179 167.638 45.3358 167.73C45.1538 167.822 44.9916 167.949 44.8586 168.104C44.7257 168.258 44.6245 168.438 44.5609 168.632C44.4972 168.826 44.4724 169.03 44.4878 169.233L45.1148 177.494C45.1444 177.884 45.3204 178.249 45.6077 178.516C45.895 178.782 46.2723 178.93 46.664 178.93ZM46.0572 189.888L46.6842 198.148C46.7137 198.539 46.8898 198.904 47.1771 199.17C47.4644 199.437 47.8418 199.585 48.2335 199.584L48.3508 199.58C48.5543 199.565 48.7527 199.51 48.9348 199.417C49.1169 199.325 49.279 199.198 49.412 199.044C49.545 198.889 49.6462 198.709 49.7098 198.516C49.7734 198.322 49.7982 198.117 49.7828 197.914L49.1558 189.653C49.1462 189.448 49.0947 189.247 49.0045 189.062C48.9143 188.877 48.7873 188.712 48.6313 188.578C48.4752 188.444 48.2934 188.343 48.097 188.282C47.9007 188.221 47.6938 188.2 47.4892 188.222C47.2858 188.237 47.0873 188.292 46.9052 188.384C46.7232 188.476 46.561 188.603 46.428 188.758C46.2951 188.913 46.1939 189.092 46.1303 189.286C46.0666 189.48 46.0418 189.685 46.0572 189.888ZM154.035 190.58L153.056 198.808C153.032 199.01 153.048 199.215 153.103 199.411C153.158 199.608 153.252 199.791 153.378 199.951C153.504 200.111 153.661 200.245 153.839 200.344C154.017 200.444 154.212 200.507 154.415 200.531C154.475 200.539 154.536 200.543 154.597 200.543C154.977 200.543 155.344 200.403 155.628 200.151C155.912 199.898 156.094 199.549 156.138 199.172L157.117 190.944C157.141 190.742 157.125 190.536 157.069 190.34C157.014 190.144 156.92 189.961 156.794 189.801C156.668 189.641 156.512 189.507 156.334 189.408C156.156 189.308 155.96 189.245 155.758 189.221C155.555 189.197 155.35 189.213 155.154 189.268C154.958 189.324 154.775 189.417 154.615 189.543C154.455 189.67 154.321 189.826 154.222 190.004C154.122 190.182 154.058 190.377 154.035 190.58ZM183.597 127.225C183.675 127.239 183.755 127.246 183.835 127.245C184.206 127.245 184.564 127.112 184.845 126.871C185.126 126.63 185.312 126.296 185.368 125.93L186.048 121.594C186.08 121.392 186.072 121.187 186.024 120.988C185.976 120.79 185.889 120.603 185.769 120.439C185.649 120.274 185.497 120.135 185.323 120.029C185.149 119.923 184.955 119.853 184.754 119.822C184.551 119.784 184.344 119.788 184.143 119.833C183.943 119.878 183.754 119.964 183.588 120.086C183.421 120.207 183.282 120.361 183.178 120.538C183.074 120.716 183.007 120.912 182.982 121.116L182.302 125.453C182.27 125.654 182.279 125.86 182.326 126.058C182.374 126.256 182.461 126.443 182.581 126.608C182.701 126.772 182.853 126.912 183.027 127.017C183.202 127.123 183.395 127.194 183.597 127.225ZM180.397 147.685C180.476 147.7 180.555 147.706 180.636 147.705C181.006 147.705 181.364 147.573 181.645 147.332C181.927 147.09 182.112 146.757 182.169 146.39L183.451 138.207C183.483 138.006 183.475 137.8 183.427 137.602C183.379 137.404 183.292 137.217 183.172 137.052C183.052 136.888 182.9 136.748 182.726 136.642C182.552 136.537 182.358 136.466 182.157 136.435C181.955 136.399 181.748 136.405 181.548 136.451C181.348 136.497 181.16 136.583 180.994 136.704C180.829 136.825 180.689 136.978 180.584 137.155C180.48 137.331 180.412 137.527 180.385 137.73L179.102 145.913C179.071 146.115 179.079 146.32 179.127 146.518C179.175 146.717 179.261 146.903 179.381 147.068C179.502 147.233 179.653 147.372 179.828 147.478C180.002 147.584 180.195 147.654 180.397 147.685ZM171.663 201.785C171.742 201.799 171.822 201.806 171.902 201.805C172.272 201.805 172.631 201.673 172.912 201.432C173.193 201.19 173.379 200.857 173.435 200.49L174.713 192.303C174.745 192.102 174.737 191.896 174.689 191.698C174.641 191.499 174.555 191.313 174.434 191.148C174.314 190.983 174.163 190.844 173.988 190.738C173.814 190.632 173.621 190.562 173.419 190.531C173.217 190.496 173.01 190.501 172.811 190.548C172.611 190.594 172.423 190.681 172.258 190.801C172.092 190.922 171.953 191.075 171.848 191.251C171.743 191.427 171.675 191.623 171.647 191.826L170.369 200.013C170.337 200.214 170.345 200.42 170.393 200.618C170.441 200.817 170.528 201.003 170.648 201.168C170.768 201.333 170.92 201.472 171.094 201.578C171.268 201.684 171.462 201.754 171.663 201.785ZM174.863 181.32C174.942 181.335 175.022 181.342 175.102 181.341C175.472 181.341 175.83 181.208 176.112 180.967C176.393 180.726 176.579 180.392 176.635 180.026L177.917 171.843C177.949 171.641 177.941 171.435 177.893 171.237C177.845 171.039 177.759 170.852 177.638 170.688C177.518 170.523 177.366 170.384 177.192 170.278C177.018 170.172 176.824 170.102 176.623 170.071C176.421 170.035 176.214 170.04 176.014 170.086C175.814 170.133 175.626 170.219 175.46 170.34C175.295 170.461 175.156 170.614 175.051 170.79C174.946 170.966 174.878 171.162 174.851 171.365L173.569 179.549C173.537 179.75 173.545 179.956 173.593 180.154C173.641 180.352 173.727 180.539 173.848 180.704C173.968 180.868 174.12 181.007 174.294 181.113C174.468 181.219 174.662 181.29 174.863 181.32ZM191.234 205.636C191.401 205.695 191.578 205.725 191.756 205.725C192.076 205.725 192.389 205.626 192.651 205.441C192.913 205.257 193.112 204.995 193.22 204.693L196.003 196.89C196.14 196.502 196.117 196.076 195.94 195.705C195.763 195.334 195.446 195.048 195.059 194.91C194.671 194.771 194.245 194.793 193.873 194.968C193.501 195.144 193.214 195.46 193.074 195.847L190.291 203.65C190.153 204.038 190.175 204.465 190.352 204.838C190.528 205.21 190.846 205.497 191.234 205.636ZM202.014 175.394C201.626 175.256 201.199 175.278 200.826 175.455C200.454 175.632 200.167 175.949 200.028 176.337L197.245 184.14C197.107 184.528 197.129 184.955 197.305 185.328C197.482 185.7 197.799 185.987 198.187 186.126C198.355 186.185 198.532 186.215 198.709 186.215C199.03 186.215 199.343 186.116 199.605 185.931C199.867 185.747 200.066 185.485 200.174 185.183L202.957 177.38C203.095 176.992 203.073 176.565 202.896 176.193C202.719 175.82 202.402 175.533 202.014 175.394ZM208.968 155.889C208.579 155.752 208.153 155.775 207.781 155.952C207.409 156.128 207.122 156.444 206.982 156.831L204.199 164.634C204.061 165.022 204.082 165.45 204.259 165.822C204.436 166.194 204.753 166.481 205.141 166.62C205.309 166.679 205.485 166.709 205.663 166.709C205.984 166.709 206.296 166.61 206.559 166.426C206.821 166.241 207.019 165.98 207.127 165.678L209.91 157.875C210.048 157.486 210.026 157.059 209.85 156.687C209.673 156.314 209.356 156.027 208.968 155.889ZM196.535 237.061C196.957 238.865 196.695 240.761 195.8 242.383C194.905 244.005 193.44 245.238 191.688 245.842C183.635 248.15 175.36 249.594 167.001 250.15C150.307 251.807 128.519 252.677 105.323 252.677C82.1264 252.677 60.3382 251.807 43.9762 250.191C35.5063 249.63 27.1198 248.172 18.9572 245.842C17.2059 245.238 15.7409 244.005 14.8457 242.383C13.9505 240.761 13.6885 238.865 14.1106 237.061L17.3328 223.166C17.3923 222.075 17.8271 221.038 18.5635 220.231L17.3811 216.157C17.3233 215.961 17.3048 215.755 17.3268 215.552C17.3487 215.348 17.4106 215.151 17.5089 214.972C17.6073 214.792 17.74 214.634 17.8997 214.506C18.0593 214.378 18.2426 214.283 18.4392 214.226C18.6357 214.169 18.8415 214.151 19.0449 214.174C19.2482 214.197 19.4451 214.259 19.6242 214.358C19.8032 214.458 19.961 214.591 20.0883 214.751C20.2157 214.911 20.3102 215.095 20.3664 215.292L21.2495 218.334C24.35 217.012 27.6091 216.098 30.945 215.616L30.5966 212.687C30.5504 212.279 30.6676 211.87 30.9225 211.548C31.1773 211.226 31.5492 211.019 31.9567 210.971C32.3641 210.923 32.7741 211.038 33.0969 211.291C33.4196 211.545 33.6289 211.915 33.679 212.323L34.0104 215.108C37.2438 214.615 41.07 214.15 45.6041 213.702C46.3236 213.631 47.1073 213.569 47.8474 213.501L47.6227 210.539C47.6073 210.335 47.6321 210.131 47.6957 209.937C47.7593 209.743 47.8605 209.564 47.9935 209.409C48.1264 209.254 48.2886 209.127 48.4707 209.035C48.6528 208.943 48.8512 208.887 49.0546 208.872C49.2602 208.845 49.469 208.862 49.6676 208.922C49.8662 208.981 50.0501 209.081 50.2073 209.216C50.3645 209.351 50.4915 209.518 50.5801 209.705C50.6686 209.893 50.7167 210.097 50.7213 210.304L50.943 213.223C66.1672 211.952 85.2019 211.255 105.323 211.255C121.936 211.255 137.811 211.73 151.417 212.611L151.591 211.145C151.614 210.942 151.677 210.746 151.776 210.567C151.875 210.388 152.009 210.231 152.169 210.104C152.329 209.977 152.513 209.883 152.71 209.827C152.906 209.771 153.112 209.755 153.315 209.779C153.518 209.803 153.714 209.867 153.893 209.967C154.071 210.067 154.228 210.201 154.354 210.362C154.48 210.523 154.573 210.707 154.628 210.904C154.683 211.101 154.698 211.307 154.673 211.509L154.516 212.829C158.207 213.091 161.759 213.378 165.041 213.702C166.141 213.811 167.156 213.922 168.174 214.032L168.447 212.29C168.472 212.086 168.539 211.89 168.643 211.712C168.748 211.535 168.887 211.381 169.053 211.26C169.219 211.138 169.408 211.052 169.609 211.007C169.809 210.962 170.017 210.958 170.219 210.996C170.421 211.027 170.614 211.097 170.788 211.203C170.963 211.309 171.114 211.448 171.234 211.613C171.355 211.777 171.441 211.964 171.489 212.162C171.537 212.361 171.545 212.566 171.513 212.768L171.26 214.388C176.082 214.88 180.861 215.733 185.556 216.938L186.121 215.357C186.188 215.163 186.293 214.984 186.429 214.831C186.566 214.677 186.732 214.553 186.917 214.464C187.102 214.375 187.303 214.324 187.508 214.313C187.713 214.302 187.918 214.332 188.111 214.401C188.305 214.47 188.482 214.577 188.634 214.715C188.786 214.853 188.91 215.019 188.997 215.205C189.084 215.391 189.134 215.592 189.143 215.798C189.152 216.003 189.12 216.207 189.049 216.4L188.501 217.938C192.002 219.392 193.158 221.093 193.313 223.166L196.535 237.061ZM32.8741 223.681C56.8892 226.838 81.1043 228.223 105.323 227.824C129.541 228.223 153.756 226.838 177.771 223.681C171.992 222.697 163.405 221.74 152.463 220.992C152.352 221.017 152.27 221.109 152.154 221.109C152.093 221.109 152.032 221.105 151.972 221.097C151.786 221.071 151.607 221.013 151.443 220.923C138.907 220.093 123.367 219.539 105.323 219.539C81.1043 219.14 56.8892 220.524 32.8741 223.681ZM55.3674 169.832V113.498C55.3695 108.216 56.7235 103.024 59.3006 98.4137C61.8777 93.8038 65.592 89.9305 70.0898 87.1624L70.1137 86.9875C71.3226 78.0635 71.9315 69.0684 71.9363 60.0629V44.3018C71.1784 43.3196 70.6834 42.1603 70.4981 40.9335C70.0544 38.1098 69.873 35.2512 69.956 32.3941C70.3499 27.5888 71.7196 22.9143 73.9814 18.6564C76.2433 14.3984 79.3497 10.6464 83.1108 7.62977C88.476 3.32056 95.0066 0.713085 101.864 0.142035C106.726 -0.295645 111.626 0.280842 116.254 1.835C120.882 3.38916 125.136 5.88715 128.748 9.17083C130.135 10.4109 131.41 11.7699 132.559 13.2322C137.535 19.4038 140.259 27.0874 140.281 35.0153C140.194 37.2135 139.937 39.4017 139.513 41.5604C139.323 42.6674 138.878 43.7149 138.212 44.6198V86.0935C143.208 88.7198 147.391 92.6602 150.311 97.4896C153.231 102.319 154.776 107.854 154.781 113.498V169.832C154.787 171.688 154.375 173.52 153.578 175.195C152.78 176.87 151.617 178.345 150.173 179.51C148.729 180.675 147.042 181.502 145.237 181.928C143.431 182.354 141.553 182.369 139.74 181.972L142.041 195.701C142.22 196.766 141.975 197.858 141.36 198.745C140.745 199.632 139.808 200.244 138.748 200.45L137.899 200.616L137.858 200.624C127.035 202.42 116.076 203.273 105.105 203.172C94.135 203.273 83.1772 202.42 72.3551 200.624L71.4652 200.45C70.4054 200.244 69.4681 199.632 68.853 198.745C68.2379 197.858 67.9937 196.766 68.1724 195.701L70.4772 181.947C69.5971 182.149 68.6974 182.254 67.7945 182.259C64.4994 182.256 61.3401 180.946 59.0102 178.616C56.6802 176.287 55.3701 173.127 55.3674 169.832ZM67.7941 173.974C68.8816 173.97 69.924 173.539 70.6968 172.774C71.4695 172.009 71.911 170.971 71.926 169.883V165.443H63.652V169.832C63.6552 170.93 64.0926 171.982 64.8687 172.758C65.6448 173.534 66.6965 173.971 67.7941 173.974ZM146.497 169.832V165.443H138.287V170.199C138.374 171.26 138.869 172.245 139.667 172.948C140.466 173.651 141.506 174.017 142.569 173.97C143.631 173.922 144.634 173.465 145.367 172.693C146.099 171.922 146.504 170.896 146.497 169.832ZM124.829 51.1352L126.239 44.8416C122.384 41.9494 118.969 38.5142 116.099 34.643C107.421 42.5454 96.2244 47.1175 84.4956 47.5479L85.2993 51.1352C86.3059 55.6258 88.8118 59.6399 92.4043 62.5162C95.9968 65.3926 100.462 66.9598 105.064 66.9598C109.666 66.9598 114.131 65.3926 117.723 62.5162C121.316 59.6399 123.822 55.6258 124.829 51.1352ZM93.9166 88.6188C97.3552 90.4156 101.184 91.335 105.064 91.2955C108.076 91.3048 111.065 90.7577 113.878 89.6817L110.974 83.007C109.837 80.9235 109.233 78.591 109.217 76.2174V74.8913C106.475 75.3613 103.674 75.3619 100.932 74.8931V76.2174C100.925 78.7128 100.276 81.1643 99.047 83.3362C97.8184 85.5081 96.0517 87.3272 93.9166 88.6188ZM63.652 113.497V157.159H71.926V132.524L68.0588 122.464C67.6651 121.438 67.6949 120.298 68.1417 119.294C68.5886 118.291 69.4158 117.505 70.4415 117.112C71.4671 116.718 72.6071 116.748 73.6108 117.195C74.6144 117.641 75.3995 118.469 75.7932 119.494L79.9355 130.271C80.1176 130.744 80.2109 131.248 80.2105 131.755V151.536H129.917V132.552C129.917 132.076 129.999 131.604 130.16 131.156L134.302 119.583C134.486 119.071 134.768 118.6 135.133 118.197C135.498 117.794 135.94 117.467 136.431 117.235C136.923 117.002 137.456 116.869 137.999 116.842C138.542 116.815 139.085 116.896 139.597 117.079C140.109 117.263 140.58 117.545 140.983 117.91C141.386 118.276 141.714 118.717 141.946 119.208C142.179 119.7 142.312 120.233 142.339 120.776C142.365 121.319 142.285 121.862 142.101 122.374L138.202 133.272L138.287 157.159H146.497V113.497C146.496 109.692 145.537 105.947 143.708 102.61C141.879 99.2726 139.239 96.4496 136.032 94.4013C135.631 96.2957 135.198 98.1837 134.686 100.053L131.499 111.703C131.272 112.531 130.795 113.267 130.132 113.811C129.469 114.355 128.653 114.68 127.798 114.741C127.701 114.749 127.599 114.753 127.502 114.753C126.696 114.753 125.907 114.518 125.232 114.076C124.557 113.634 124.026 113.005 123.704 112.266L117.184 97.2808C113.327 98.8124 109.213 99.5929 105.064 99.5802C101.095 99.6982 97.1449 98.9945 93.4611 97.5133C89.7773 96.0322 86.4395 93.8055 83.6572 90.9731C78.1453 91.6322 73.0659 94.2881 69.3796 98.4386C65.6933 102.589 63.6558 107.946 63.652 113.497ZM15.4111 205.345C15.5575 205.344 15.703 205.324 15.8439 205.284C16.04 205.227 16.223 205.132 16.3824 205.005C16.5418 204.877 16.6745 204.72 16.7729 204.541C16.8714 204.362 16.9336 204.166 16.956 203.963C16.9785 203.76 16.9607 203.555 16.9038 203.358L14.594 195.402C14.5378 195.205 14.4433 195.021 14.3159 194.861C14.1886 194.701 14.0308 194.567 13.8517 194.468C13.6727 194.369 13.4758 194.307 13.2725 194.284C13.0691 194.261 12.8633 194.279 12.6667 194.336C12.4702 194.393 12.2869 194.488 12.1272 194.616C11.9676 194.744 11.8348 194.902 11.7365 195.082C11.6382 195.261 11.5763 195.458 11.5544 195.662C11.5324 195.865 11.5509 196.071 11.6087 196.267L13.9184 204.224C14.0124 204.547 14.2087 204.831 14.4779 205.033C14.7471 205.235 15.0745 205.345 15.4111 205.345ZM3.04508 155.622C2.929 155.227 2.66139 154.895 2.30084 154.697C1.9403 154.5 1.51618 154.453 1.12134 154.568C0.7265 154.682 0.393107 154.949 0.194144 155.308C-0.0048183 155.668 -0.053141 156.092 0.0597551 156.487L2.36955 164.444C2.46352 164.767 2.65985 165.051 2.92901 165.253C3.19818 165.455 3.52564 165.565 3.86221 165.565C4.00857 165.564 4.15418 165.544 4.29505 165.504C4.49114 165.447 4.67411 165.352 4.83352 165.225C4.99293 165.097 5.12564 164.94 5.22407 164.761C5.3225 164.582 5.38472 164.386 5.40716 164.183C5.4296 163.98 5.41184 163.774 5.35487 163.578L3.04508 155.622ZM8.81754 175.512C8.70146 175.117 8.43385 174.785 8.07331 174.587C7.71276 174.39 7.28864 174.343 6.8938 174.458C6.49896 174.572 6.16557 174.839 5.9666 175.198C5.76764 175.558 5.71932 175.982 5.83221 176.377L8.142 184.334C8.23597 184.657 8.43229 184.941 8.70146 185.143C8.97062 185.345 9.2981 185.455 9.63467 185.455C9.78101 185.454 9.92661 185.434 10.0675 185.394C10.2636 185.337 10.4465 185.242 10.6059 185.115C10.7654 184.987 10.8981 184.83 10.9965 184.651C11.0949 184.472 11.1572 184.276 11.1796 184.073C11.2021 183.87 11.1843 183.664 11.1273 183.468L8.81754 175.512Z" fill="black"/>
</g>
</g>
</svg>
