<svg width="108" height="98" viewBox="0 0 108 98" fill="none" xmlns="http://www.w3.org/2000/svg">
<g id="Group 5">
<path id="Vector" d="M54.1815 9.42497C56.7841 9.42497 58.894 7.31512 58.894 4.71248C58.894 2.10985 56.7841 0 54.1815 0C51.5788 0 49.469 2.10985 49.469 4.71248C49.469 7.31512 51.5788 9.42497 54.1815 9.42497Z" fill="black"/>
<path id="Vector_2" d="M50.5563 10.3433C50.5563 10.3433 42.7142 12.9412 40.068 9.13494C37.1922 4.94204 36.6726 0.809555 29.193 0.809555C21.7135 0.809555 18.2093 8.57911 14.9952 12.0591C11.781 15.5391 18.7289 17.2066 25.0606 10.597C25.0606 10.597 20.2272 15.9983 26.0755 15.817C31.2109 15.6478 32.9751 12.3249 32.9751 12.3249C32.9751 12.3249 29.2172 17.6537 33.2047 17.3757C34.3045 17.3324 35.3848 17.0709 36.3826 16.6062C37.3804 16.1415 38.2758 15.483 39.0168 14.6691C39.0168 14.6691 37.4338 18.3545 41.0347 18.8016C43.0042 19.0312 46.303 19.0916 48.6592 17.0616C50.3026 15.6237 50.5563 10.3433 50.5563 10.3433Z" fill="black"/>
<path id="Vector_3" d="M12.6633 14.5362C12.6633 14.5362 10.2466 20.2636 0 27.1511C0 27.1511 3.89082 31.9844 19.6716 16.1191C19.6716 16.1191 12.8566 18.282 12.6633 14.5362Z" fill="black"/>
<path id="Vector_4" d="M21.6776 15.5391C21.6776 15.5391 19.2609 21.2062 8.90552 27.8761C8.90552 27.8761 12.7601 32.8303 28.6617 17.2791C28.6617 17.2791 21.8346 19.2849 21.6776 15.5391Z" fill="black"/>
<path id="Vector_5" d="M30.365 17.3516C30.365 17.3516 28.0692 22.1849 18.2092 27.8278C18.2092 27.8278 21.9188 32.0932 37.0471 18.8983C37.0471 18.8983 30.2684 21.4599 30.365 17.3516Z" fill="black"/>
<path id="Vector_6" d="M38.2797 19.1037C38.2797 19.1037 36.3101 23.2603 27.8518 28.0936C27.8518 28.0936 31.948 31.5132 44.9376 20.1912C44.9376 20.1912 38.473 21.8587 38.2797 19.1037Z" fill="black"/>
<path id="Vector_7" d="M57.3958 10.3433C57.3958 10.3433 65.2378 12.9412 67.8841 9.13494C70.7599 4.94204 71.2795 0.809555 78.759 0.809555C86.2386 0.809555 89.7427 8.57911 92.9569 12.0591C96.171 15.5391 89.2231 17.1703 82.9157 10.5608C82.9157 10.5608 87.749 15.962 81.9007 15.7808C76.7653 15.6116 75.0011 12.2887 75.0011 12.2887C75.0011 12.2887 78.759 17.5933 74.7232 17.3395C73.623 17.2982 72.5421 17.0375 71.544 16.5727C70.5459 16.1079 69.6508 15.4484 68.9111 14.6328C68.9111 14.6328 70.5182 18.3545 66.9174 18.7895C64.9478 19.0191 61.6491 19.0795 59.2928 17.0495C57.6978 15.6237 57.3958 10.3433 57.3958 10.3433Z" fill="black"/>
<path id="Vector_8" d="M95.3367 14.5362C95.3367 14.5362 97.7533 20.2636 108 27.1511C108 27.1511 104.109 31.9844 88.3284 16.1191C88.3284 16.1191 95.1433 18.282 95.3367 14.5362Z" fill="black"/>
<path id="Vector_9" d="M86.3228 15.5391C86.3228 15.5391 88.7394 21.2062 99.0948 27.8761C99.0948 27.8761 95.2402 32.8303 79.3386 17.2791C79.3386 17.2791 86.1657 19.2849 86.3228 15.5391Z" fill="black"/>
<path id="Vector_10" d="M77.6349 17.3516C77.6349 17.3516 79.9308 22.1849 89.7907 27.8278C89.7907 27.8278 86.0812 32.0932 70.9529 18.8983C70.9529 18.8983 77.7316 21.4599 77.6349 17.3516Z" fill="black"/>
<path id="Vector_11" d="M69.7206 19.1037C69.7206 19.1037 71.6902 23.2603 80.1485 28.0936C80.1485 28.0936 76.0523 31.5132 63.0627 20.1912C63.0627 20.1912 69.5756 21.8587 69.7206 19.1037Z" fill="black"/>
<path id="Vector_12" d="M77.3935 36.0082C77.3935 34.0145 76.4389 30.5103 70.5664 27.8882C69.0252 26.7357 67.137 26.1432 65.2135 26.2086C63.6065 26.2086 62.8935 27.3203 61.7456 27.9124C60.2715 28.6616 58.5677 29.0361 58.5677 30.3291C58.5677 32.6007 61.5402 34.4374 65.2135 34.4374C65.9743 34.4332 66.7322 34.3441 67.4731 34.1715C68.5679 34.5518 69.5574 35.1852 70.361 36.0203C69.5756 37.2286 64.8148 39.6453 56.3565 40.0199L57.0452 11.9987C57.0452 10.9716 55.7402 10.1137 54.109 10.1137C52.4777 10.1137 51.1486 10.9716 51.1848 11.9987L51.8615 40.0078C43.5361 39.6211 38.8357 37.1924 38.0503 36.0203C38.9276 35.1367 39.9993 34.4705 41.1799 34.0749C41.8369 34.202 42.5044 34.2667 43.1736 34.2682C46.7986 34.2682 49.8194 32.4195 49.8194 30.1599C49.8194 28.8791 48.1157 28.5045 46.6415 27.7432C45.4332 27.1632 44.7807 26.0516 43.1736 26.0516C41.0785 25.9549 39.0282 26.6788 37.4582 28.0695C33.2895 30.039 30.9937 32.794 30.9937 36.0082C30.9937 40.0199 34.3286 42.8715 39.1257 44.684C36.4674 46.2669 34.7636 48.3936 34.7636 51.064C34.7636 54.689 37.9295 57.3715 42.4486 58.9785C41.6098 59.5381 40.9139 60.2865 40.4165 61.1636C39.9192 62.0408 39.6344 63.0223 39.5849 64.0294C39.5849 66.8931 41.8807 69.3339 45.5299 70.8202C44.6174 71.3351 43.8484 72.0705 43.2933 72.9591C42.7382 73.8478 42.4145 74.8613 42.3519 75.9072C42.3519 78.7347 44.7686 81.1272 48.3936 82.396C47.6564 82.8043 47.0335 83.3911 46.5817 84.1025C46.13 84.8139 45.8639 85.6272 45.8078 86.468C45.8078 89.4405 48.9494 91.8088 53.0577 92.1593L53.2148 96.1347C53.2148 96.3654 53.3065 96.5867 53.4696 96.7498C53.6328 96.913 53.8541 97.0047 54.0848 97.0047C54.3156 97.0047 54.5368 96.913 54.7 96.7498C54.8632 96.5867 54.9548 96.3654 54.9548 96.1347L55.0515 92.2559C59.3169 91.9659 62.5552 89.5614 62.5552 86.5405C62.5158 85.6994 62.2662 84.8816 61.8293 84.1618C61.3923 83.4421 60.782 82.8432 60.054 82.4201C63.679 81.2118 66.0956 78.7951 66.0956 75.9314C66.0331 74.8855 65.7094 73.8719 65.1543 72.9833C64.5992 72.0947 63.8302 71.3593 62.9177 70.8443C66.5427 69.3581 68.8627 66.9173 68.8627 64.0535C68.8132 63.0464 68.5284 62.0649 68.031 61.1878C67.5337 60.3107 66.8377 59.5623 65.999 59.0027C70.5181 57.3956 73.6839 54.7373 73.6839 51.0882C73.6839 48.4177 71.9802 46.2548 69.3219 44.7082C74.0585 42.8715 77.3935 40.0199 77.3935 36.0082ZM64.4644 28.0574C64.905 27.8436 65.3884 27.7325 65.8781 27.7325C66.3679 27.7325 66.8512 27.8436 67.2919 28.0574C66.8659 28.3167 66.3768 28.4539 65.8781 28.4539C65.3794 28.4539 64.8903 28.3167 64.4644 28.0574ZM44.2611 28.0574C43.8351 28.3167 43.3461 28.4539 42.8474 28.4539C42.3487 28.4539 41.8596 28.3167 41.4336 28.0574C41.874 27.8427 42.3575 27.7311 42.8474 27.7311C43.3373 27.7311 43.8207 27.8427 44.2611 28.0574ZM40.7811 51.0882C41.0228 50.1457 44.829 47.8015 52.0186 47.3907L52.1998 54.7373C44.8894 54.3627 41.0228 51.9823 40.7811 51.0882ZM44.4061 64.0294C44.4061 63.0385 47.0403 61.2864 51.3419 60.7185H52.3569L52.5261 67.4127C47.5115 67.1348 44.394 65.1169 44.394 64.0294H44.4061ZM45.9649 75.9072C45.9649 74.4089 48.3815 72.7656 52.0065 72.2822H52.6711L52.8523 79.641C48.8044 79.3147 45.9528 77.5264 45.9528 75.9072H45.9649ZM48.2244 86.468C48.2244 85.1147 50.049 83.6285 52.7919 83.2418H52.9007L53.0577 89.7184C50.1698 89.4405 48.2244 87.918 48.2244 86.468ZM60.1386 86.468C60.1386 87.8939 58.1086 89.4526 55.1119 89.7305L55.269 83.2539H55.5711C58.314 83.6768 60.1386 85.163 60.1386 86.468ZM55.3052 79.6289L55.4865 72.2581C55.7765 72.2581 56.0665 72.2581 56.3444 72.2581C59.8969 72.7535 62.386 74.3968 62.386 75.8831C62.386 77.3693 59.4619 79.3751 55.3898 79.6772L55.3052 79.6289ZM55.6073 67.4248L55.7765 60.7185C56.1752 60.7185 56.5861 60.7185 56.9848 60.7185C61.2865 61.2864 63.9206 63.0385 63.9206 64.0294C63.9206 65.0202 60.7669 67.1348 55.6557 67.4731L55.6073 67.4248ZM55.9215 54.7011L56.1027 47.3302C63.3527 47.7048 67.1952 50.0369 67.5215 51.0156C67.2435 52.0427 63.3165 54.4111 55.9698 54.7494L55.9215 54.7011Z" fill="black"/>
</g>
</svg>
