<svg width="67" height="129" viewBox="0 0 67 129" fill="none" xmlns="http://www.w3.org/2000/svg">
<g id="Group 10">
<g id="Group 4">
<g id="Group 8">
<g id="Group">
<path id="Vector" d="M20.6941 52.6802C19.8414 52.8278 19.4501 54.6522 19.8256 56.7533C20.1696 58.6838 21.0381 60.1758 21.8436 60.289C22.8654 63.0379 24.4835 65.708 26.4828 67.6586C27.6122 68.7664 28.8677 69.6421 30.2049 70.1738C31.125 70.5364 32.0838 70.7414 33.0713 70.7414C34.0573 70.7414 35.0161 70.5393 35.9348 70.1738C37.3207 69.622 38.6163 68.7062 39.7787 67.5453C41.7292 65.5976 43.3115 62.9677 44.3076 60.2675C45.0801 60.0397 45.8898 58.5979 46.2166 56.7533C46.572 54.7526 46.2367 53.0084 45.4642 52.7189C45.4928 52.2301 45.5115 51.7357 45.5086 51.2312C45.4914 43.9792 41.2377 39.1923 34.536 38.7437C28.6914 38.3496 24.2886 40.6728 22.285 44.531C21.6071 45.828 21.2259 48.0266 21.0754 49.7908C20.8504 50.7109 20.7185 51.6655 20.7185 52.6544H20.7429C20.7429 52.663 20.7414 52.6716 20.74 52.6787C20.7199 52.6759 20.7099 52.6773 20.6941 52.6802ZM22.5688 54.2596C22.6591 54.2438 22.7537 54.261 22.8482 54.2997C22.917 54.3298 22.9873 54.3685 23.0561 54.4244C23.0561 54.41 23.0589 54.3971 23.0604 54.3871C23.0905 54.0804 23.3355 52.4408 24.3588 51.138C25.0453 50.2624 26.0887 49.5443 27.6552 49.4856C27.9003 49.4755 28.1554 49.4798 28.4248 49.5056C28.4248 49.5056 30.2636 50.1807 32.5811 50.2136C33.6918 50.2294 34.9115 50.1004 36.0968 49.6762C36.2673 49.6733 36.435 49.6719 36.6012 49.6704C36.8162 49.669 37.0298 49.6719 37.229 49.6776C38.6292 49.7306 39.6224 50.4042 40.6242 50.903C40.7031 50.9431 40.7833 50.9861 40.865 51.0234C40.8321 50.5633 40.5039 50.0961 40.468 49.7579C40.4652 49.7292 40.4594 49.702 40.4623 49.6747C40.6357 49.7235 40.7919 49.7994 40.9438 49.8811C41.7163 50.7038 42.4645 52.0782 43.0607 54.3068C43.0693 54.3369 43.0779 54.3627 43.0865 54.3943C43.0865 54.4043 43.0865 54.4143 43.0865 54.4215C43.0893 54.4201 43.0894 54.4201 43.0922 54.4186C43.0922 54.4201 43.0922 54.4201 43.0922 54.4215L43.1037 54.4115C43.1825 54.3498 43.2628 54.304 43.3416 54.2767C43.3617 54.2696 43.3803 54.2681 43.4004 54.2667C43.4233 54.2653 43.4448 54.2653 43.4677 54.2639C43.5035 54.261 43.5465 54.2481 43.5766 54.2538H43.5795C43.6182 54.261 43.6583 54.2768 43.6942 54.2882C44.0668 54.4659 44.2789 55.1653 44.2617 56.0668C44.256 56.3649 44.2259 56.6874 44.1671 57.0199C44.1499 57.1088 44.1284 57.1847 44.1084 57.2707C43.9091 58.1736 43.548 58.9132 43.1653 59.2414C43.0779 59.3173 42.9833 59.3703 42.8959 59.3976C42.8113 59.4262 42.7339 59.4363 42.6494 59.4234C42.6379 59.4219 42.6264 59.4148 42.6135 59.4105C42.5404 59.3904 42.4645 59.3531 42.4014 59.2915C42.39 59.3274 42.3756 59.3632 42.3627 59.399C41.4283 62.2453 39.6812 65.0659 37.4812 66.79C37.1516 67.0466 36.8119 67.2788 36.4651 67.4837C35.4074 68.1057 34.2651 68.4697 33.0784 68.4697C33.0426 68.4697 33.0053 68.4654 32.9695 68.464C31.4647 68.4353 30.0372 67.8348 28.7616 66.8574C26.4914 65.1203 24.6899 62.2124 23.7526 59.2901C23.6967 59.3417 23.6336 59.3761 23.5691 59.3976C23.5448 59.4062 23.5247 59.4176 23.5004 59.4219C23.4373 59.4334 23.3728 59.4262 23.3083 59.4105C23.175 59.3775 23.0389 59.2958 22.9099 59.1668C22.5157 58.7713 22.1574 57.9773 21.9855 57.0199C21.974 56.9568 21.9668 56.8981 21.9582 56.8336C21.9611 56.17 21.9926 55.5222 22.0371 54.8816C22.1202 54.635 22.2305 54.4444 22.3753 54.3412C22.4283 54.3054 22.4856 54.2825 22.543 54.2682C22.5501 54.2696 22.5587 54.261 22.5688 54.2596Z" fill="black"/>
<path id="Vector_2" d="M48.4554 71.7045C48.3379 71.683 48.2404 71.6644 48.1616 71.6457C48.067 71.6228 47.9652 71.6099 47.8678 71.5898C47.8936 71.6371 47.9179 71.6815 47.9409 71.7317C48.1989 72.2778 48.3751 72.8453 48.4697 73.4258C48.6345 73.4816 48.7893 73.5461 48.9341 73.625C50.4791 74.4519 51.0638 76.3839 50.2383 77.9289C49.6808 78.9679 48.6059 79.6115 47.4307 79.6115C46.9104 79.6115 46.3916 79.481 45.9301 79.2331C45.1834 78.8332 44.6345 78.1654 44.388 77.3513C44.1415 76.5372 44.226 75.6773 44.6259 74.9292C45.0229 74.1853 45.7037 73.6393 46.5148 73.3971C46.3357 72.6905 45.9573 71.8951 45.3611 71.2989C45.1676 71.286 44.9742 71.2731 44.7907 71.2631C43.9236 71.2129 43.0909 71.1685 42.4173 71.0323C41.6334 73.109 37.7766 74.6196 33.027 74.6196C28.2745 74.6196 24.4192 73.109 23.6338 71.0323C22.9544 71.1685 22.126 71.2158 21.259 71.2659C21.1027 71.2745 20.9394 71.286 20.7788 71.296C20.1081 71.8879 19.6194 72.6633 19.4288 73.3383C19.6839 73.5275 19.8888 73.7841 20.025 74.0836C21.2504 74.6612 22.331 75.878 23.1608 77.6093C23.2998 77.9016 23.317 78.2313 23.2153 78.5322C23.7126 79.8107 23.9964 81.2066 23.9964 82.3804C23.9964 84.0228 23.9964 85.5764 22.2049 85.9777C22.01 86.1382 21.7678 86.2271 21.5126 86.2271H20.3159C19.7154 86.2271 19.2267 85.7384 19.2267 85.1379L19.2281 85.0963C19.251 84.5173 19.7355 84.0501 20.3159 84.0501H21.5126C21.6359 84.0501 21.7563 84.0716 21.8709 84.1117C21.944 84.0902 21.9655 84.0744 21.9655 84.0744C22.1003 83.838 22.1003 82.8534 22.1003 82.3818C22.1003 81.4287 21.8609 80.2779 21.4438 79.2087C21.2274 79.0855 21.0526 78.8992 20.9437 78.6741C20.217 77.1535 19.231 76.1732 18.4284 76.1732C17.6086 76.1732 16.571 77.2338 15.8486 78.8132C15.7311 79.0711 15.5233 79.2789 15.2696 79.4036C14.8913 80.4284 14.6849 81.4803 14.6849 82.3818C14.6849 82.7774 14.6849 83.8322 14.8354 84.0787C14.8382 84.0787 14.8712 84.1002 14.9672 84.1232C15.0905 84.0759 15.2252 84.0501 15.3556 84.0501H16.5552C17.1141 84.0501 17.5814 84.4757 17.6373 85.029L17.643 85.0977C17.643 85.7398 17.1557 86.2285 16.5552 86.2285H15.3556C15.1177 86.2285 14.8884 86.1497 14.6978 86.005C14.0127 85.876 13.5311 85.5736 13.2259 85.0805C12.8561 84.4872 12.7873 83.7061 12.7873 82.3818C12.7873 81.2181 13.0553 79.8823 13.5426 78.6039C13.4709 78.3316 13.4953 78.045 13.6143 77.7884C14.1216 76.6791 14.768 75.7275 15.4817 75.041C15.8716 74.6626 16.2929 74.3573 16.7343 74.1366C16.8949 73.7597 17.17 73.443 17.5083 73.2409C17.6029 72.7006 17.815 72.1445 18.1131 71.6099C18.04 71.6257 17.9626 71.6357 17.8909 71.6514C17.8107 71.6701 17.7118 71.6873 17.5957 71.7102C16.6928 71.8851 14.6419 72.2778 12.6182 74.6397C11.3971 76.0628 10.1889 78.1997 9.2473 81.4388C9.01226 82.2457 9.00939 83.097 9.20001 83.891C9.2903 84.2522 9.40496 84.609 9.57837 84.9372C11.6622 88.8843 23.0447 90.2917 32.9955 90.2917H33.0513C43.0049 90.2917 54.3803 88.8843 56.4684 84.9329C56.6734 84.5531 56.7938 84.1375 56.8798 83.7104C57.0259 82.968 57.0145 82.1869 56.7981 81.4373C55.9525 78.5136 54.8862 76.5043 53.7883 75.0868C51.6572 72.3322 49.4128 71.8879 48.4554 71.7045Z" fill="black"/>
<path id="Vector_3" d="M47.4308 78.1482C48.3806 78.1482 49.1506 77.3782 49.1506 76.4283C49.1506 75.4785 48.3806 74.7085 47.4308 74.7085C46.4809 74.7085 45.7109 75.4785 45.7109 76.4283C45.7109 77.3782 46.4809 78.1482 47.4308 78.1482Z" fill="black"/>
</g>
</g>
<path id="Vector_4" d="M59.5725 0H6.4709C2.90367 0 0 2.90223 0 6.46947V122.52C0 126.086 2.90223 128.99 6.4709 128.99H59.5725C63.1383 128.99 66.0391 126.087 66.0391 122.52V6.46947C66.0391 2.90223 63.1397 0 59.5725 0ZM2.74458 112.522V16.4661H63.2959V112.521L2.74458 112.522ZM37.1371 120.767C37.1371 123.042 35.2955 124.885 33.0195 124.885C30.7465 124.885 28.9034 123.042 28.9034 120.767C28.9034 118.494 30.7465 116.653 33.0195 116.653C35.2955 116.653 37.1371 118.494 37.1371 120.767ZM24.7858 9.60532C24.7858 8.84859 25.4006 8.23231 26.1588 8.23231H39.8803C40.6384 8.23231 41.2547 8.84859 41.2547 9.60532C41.2547 10.362 40.6384 10.9783 39.8803 10.9783H26.1588C25.4006 10.9783 24.7858 10.362 24.7858 9.60532Z" fill="black"/>
</g>
</g>
</svg>
