<svg width="88" height="114" viewBox="0 0 88 114" fill="none" xmlns="http://www.w3.org/2000/svg">
<g id="Group 9">
<g id="Group 2">
<g id="Group">
<path id="Vector" d="M25.0781 0C22.6244 0 20.6549 2.03422 20.6549 4.50669V4.63179H6.88515C3.08297 4.63179 0 7.71416 0 11.517V106.575C0 110.378 3.08297 113.502 6.88515 113.502H80.2019C84.0041 113.502 87.0871 110.378 87.0871 106.575V11.517C87.0871 7.71416 84.0041 4.63179 80.2019 4.63179H66.4322V4.50669C66.4322 2.03408 64.4627 0 62.0089 0H25.0781ZM25.0781 2.00297H62.0076C63.3625 2.00297 64.4278 3.08681 64.4278 4.50669V5.46644C64.4252 5.50811 64.4252 5.54988 64.4278 5.59155V6.17575V9.55576V12.1011C64.4278 12.4276 64.4037 12.7524 64.3444 13.0609C64.3278 13.1016 64.3139 13.1434 64.3027 13.186C64.2063 13.6258 64.0472 14.0514 63.8437 14.4378C63.7912 14.5365 63.7357 14.6355 63.6768 14.7299C63.6509 14.7719 63.6204 14.8141 63.5933 14.855C63.5827 14.8713 63.5625 14.8807 63.5517 14.8967C63.4179 15.0925 63.2944 15.3072 63.1344 15.4809C62.9813 15.6457 62.8084 15.7979 62.6337 15.9399C62.5786 15.9849 62.5236 16.0226 62.4667 16.0651C62.4112 16.1069 62.3572 16.1509 62.2998 16.1902C62.1165 16.315 61.9159 16.4248 61.7156 16.524C61.6324 16.5653 61.5511 16.6127 61.4652 16.6491C60.8799 16.8938 60.2264 17.0247 59.5457 17.0247H50.6993C50.468 17.0333 50.2468 17.1218 50.0733 17.2751C49.9417 17.3867 49.841 17.5304 49.7812 17.6923C49.7646 17.7331 49.7507 17.7749 49.7396 17.8174C49.7393 17.8313 49.7393 17.8452 49.7396 17.8591C49.2928 20.454 47.2766 22.5204 44.6905 22.9918C44.3213 23.0591 43.9538 23.0752 43.5638 23.0752C42.3817 23.0752 41.2885 22.8033 40.3508 22.2407C40.0478 22.0625 39.7838 21.8393 39.5162 21.6147C39.5095 21.6081 39.4816 21.6214 39.4746 21.6147C39.1995 21.3814 38.9547 21.0986 38.7234 20.8219C38.2656 20.2686 37.9294 19.635 37.6802 18.9442C37.5556 18.5988 37.452 18.2301 37.3881 17.8593C37.3539 17.7385 37.2973 17.6253 37.2212 17.5254C37.2086 17.497 37.1947 17.4691 37.1796 17.442C37.1534 17.4125 37.1255 17.3847 37.0961 17.3585C37.0835 17.3301 37.0696 17.3022 37.0544 17.2751C37.0406 17.2748 37.0267 17.2748 37.0128 17.2751C36.9993 17.2608 36.9854 17.2469 36.9711 17.2334C36.9572 17.2331 36.9433 17.2331 36.9295 17.2334C36.9169 17.205 36.903 17.1771 36.8878 17.15C36.8739 17.1497 36.86 17.1497 36.8461 17.15C36.8327 17.1357 36.8188 17.1218 36.8045 17.1083C36.7906 17.108 36.7767 17.108 36.7628 17.1083C36.7489 17.108 36.735 17.108 36.7211 17.1083C36.7077 17.094 36.6938 17.0801 36.6795 17.0666C36.6517 17.0654 36.6238 17.0654 36.596 17.0666C36.5821 17.0663 36.5682 17.0663 36.5544 17.0666C36.5405 17.0663 36.5266 17.0663 36.5127 17.0666C36.4988 17.0663 36.4849 17.0663 36.471 17.0666C36.4439 17.0514 36.416 17.0375 36.3876 17.0249H27.5411C27.2008 17.0249 26.8593 17.0057 26.5396 16.9415C26.3076 16.8939 26.0903 16.8119 25.872 16.7328C25.86 16.7288 25.8426 16.7368 25.8303 16.7328C25.6727 16.6742 25.5205 16.5981 25.3713 16.5242C25.2253 16.4517 25.0911 16.3602 24.954 16.2738C24.8414 16.2032 24.7263 16.1446 24.6202 16.0652C24.4764 15.9571 24.3337 15.8544 24.2029 15.7313C23.938 15.4825 23.6978 15.1996 23.4935 14.8968C23.4593 14.846 23.4424 14.7821 23.4101 14.7299C23.3562 14.6424 23.3333 14.5288 23.2849 14.4378C23.214 14.306 23.0935 14.2011 23.0346 14.0622C23.0292 14.0502 23.0399 14.0326 23.0346 14.0206C23.0292 14.0085 23.0399 13.9911 23.0346 13.9789C22.9314 13.7236 22.8445 13.4609 22.7842 13.1861C22.7707 13.1718 22.7568 13.1579 22.7425 13.1444C22.7399 13.1311 22.7452 13.1159 22.7425 13.1027C22.6808 12.7951 22.6618 12.4688 22.6591 12.1429V9.55576V6.17583V5.63336C22.6637 5.57782 22.6637 5.52198 22.6591 5.46644V4.50669C22.6591 3.08671 23.7231 2.00297 25.0781 2.00297ZM6.88448 6.63492H20.6542V9.55592V9.59757V12.1013V12.1429C20.6547 12.2264 20.6502 12.3105 20.6542 12.3933H8.26092C8.19156 12.386 8.12164 12.386 8.05228 12.3933C7.82421 12.4418 7.62023 12.5684 7.4755 12.7513C7.33076 12.9341 7.25435 13.1617 7.25944 13.3948V104.738C7.25947 105.004 7.36499 105.259 7.55279 105.446C7.7406 105.634 7.99532 105.74 8.26092 105.74H78.8657C79.1313 105.74 79.386 105.634 79.5738 105.446C79.7616 105.259 79.8671 105.004 79.8671 104.738V13.3948C79.8671 13.1292 79.7616 12.8745 79.5738 12.6867C79.386 12.4989 79.1313 12.3933 78.8657 12.3933H66.4305C66.4346 12.2966 66.4305 12.1987 66.4305 12.1012V9.55584V6.63484H80.2003C82.9242 6.63484 85.0825 8.79189 85.0825 11.517V106.574C85.0825 109.299 82.9242 111.498 80.2003 111.498H6.88355C4.15964 111.498 2.00137 109.299 2.00137 106.574V11.517C2.00137 8.79189 4.16057 6.63492 6.88448 6.63492ZM9.26294 14.3964H21.0304C21.0797 14.5387 21.1392 14.6758 21.1973 14.8137C21.2027 14.8244 21.192 14.8442 21.1973 14.8554C21.3689 15.2566 21.5826 15.6235 21.8232 15.982C21.8299 15.9927 21.8166 16.0135 21.8232 16.0237C22.4384 16.9308 23.3229 17.6218 24.2853 18.1519C24.3185 18.1701 24.3352 18.2178 24.3688 18.2354C24.4497 18.2797 24.5362 18.3196 24.6191 18.3605C24.7042 18.4011 24.7826 18.4486 24.8695 18.4857C25.046 18.5638 25.2276 18.6317 25.412 18.6943C26.0844 18.9162 26.7948 19.0281 27.5402 19.0281H35.6773C36.174 20.76 37.1814 22.2882 38.5565 23.3679C38.5645 23.3746 38.5902 23.3612 38.5982 23.3679C39.9689 24.4347 41.6873 25.0787 43.564 25.0787C47.3422 25.0787 50.4157 22.492 51.4089 19.0281H59.5461C60.2914 19.0281 61.0018 18.9162 61.6743 18.6943C61.8587 18.6317 62.0402 18.5637 62.2168 18.4857C62.3617 18.4237 62.4944 18.3485 62.634 18.277C62.6957 18.2443 62.7405 18.1863 62.801 18.1518C63.7633 17.6218 64.6478 16.9308 65.263 16.0237C65.2697 16.013 65.2563 15.9921 65.263 15.982C65.5931 15.4903 65.8588 14.9653 66.0559 14.3963H77.8651V103.737H9.26334L9.26294 14.3964ZM34.5084 32.2977C34.2428 32.2977 33.9881 32.4032 33.8003 32.591C33.6125 32.7788 33.5069 33.0336 33.5069 33.2992V48.9891H17.817C17.5514 48.9891 17.2966 49.0946 17.1088 49.2824C16.921 49.4702 16.8155 49.725 16.8155 49.9906V68.1001C16.8155 68.3657 16.921 68.6204 17.1088 68.8082C17.2966 68.996 17.5514 69.1016 17.817 69.1016H33.5069V84.7916C33.5069 85.0572 33.6125 85.3118 33.8003 85.4996C33.9881 85.6875 34.2428 85.7929 34.5084 85.793H52.5765C52.8421 85.7929 53.0968 85.6875 53.2847 85.4996C53.4725 85.3118 53.578 85.0572 53.578 84.7916V69.1016H69.268C69.5336 69.1016 69.7883 68.996 69.9761 68.8082C70.1639 68.6204 70.2694 68.3657 70.2694 68.1001V49.9906C70.2694 49.725 70.1639 49.4702 69.9761 49.2824C69.7883 49.0946 69.5336 48.9891 69.268 48.9891H53.578V33.2992C53.578 33.0336 53.4725 32.7788 53.2847 32.591C53.0968 32.4032 52.8421 32.2977 52.5765 32.2977H34.5084ZM35.5099 34.3006H51.575V49.9906C51.5751 50.2562 51.6806 50.5109 51.8684 50.6987C52.0562 50.8866 52.3109 50.992 52.5765 50.9921H68.2665V67.0986H52.5765C52.3109 67.0987 52.0562 67.2042 51.8684 67.392C51.6806 67.5798 51.5751 67.8345 51.575 68.1001V83.7901H35.5099V68.1001C35.5098 67.8345 35.4043 67.5798 35.2165 67.392C35.0287 67.2042 34.774 67.0987 34.5084 67.0986H18.8184V50.9921H34.5084C34.774 50.992 35.0287 50.8866 35.2165 50.6987C35.4043 50.5109 35.5098 50.2562 35.5099 49.9906V34.3006Z" fill="black"/>
</g>
</g>
</g>
</svg>
