<svg width="124" height="116" viewBox="0 0 124 116" fill="none" xmlns="http://www.w3.org/2000/svg">
<g id="Group 3">
<g id="Group">
<path id="Compound Path" d="M99.0737 19.1062C96.7962 7.59185 88.4451 0.126531 77.69 0.126531C72.1261 0.297202 66.7267 2.05312 62.1267 5.18777C57.4721 1.9555 51.9751 0.152479 46.3103 0C35.5552 0 27.0776 7.59185 24.9266 19.2327C21.8899 35.3021 31.3797 56.4328 59.7226 67.8206C61.1835 68.4115 62.8169 68.4115 64.2777 67.8206C92.6207 56.1797 102.11 35.0491 99.0737 19.1062ZM62.0002 60.4818C38.2124 50.7389 29.9878 33.5307 32.3919 20.6245C33.9103 12.6531 39.2246 7.59185 46.3103 7.59185C50.4859 7.59185 55.1675 9.36329 59.7226 12.9062C60.3797 13.3989 61.1788 13.6653 62.0002 13.6653C62.8215 13.6653 63.6207 13.3989 64.2777 12.9062C68.8328 9.48982 73.5145 7.71838 77.5635 7.71838C84.6492 7.71838 89.9635 12.6531 91.4819 20.6245C94.0125 33.2776 85.788 50.6124 62.0002 60.4818Z" fill="black"/>
<path id="Path" d="M17.9674 69.3389L17.5878 48.9675C17.5215 46.6405 16.5418 44.4331 14.8606 42.8229C13.1794 41.2127 10.9318 40.3292 8.6041 40.3634C6.32215 40.3634 4.13367 41.2699 2.52008 42.8834C0.906501 44.497 0 46.6855 0 48.9675V76.5512C0.00968595 79.103 1.00736 81.5518 2.78368 83.3839L25.1797 106.539C25.8844 107.261 26.8468 107.673 27.8553 107.684C28.3547 107.69 28.8503 107.598 29.3139 107.412C29.7775 107.226 30.2 106.951 30.5572 106.602C30.9145 106.253 31.1995 105.837 31.396 105.378C31.5925 104.919 31.6967 104.426 31.7026 103.927C31.7085 103.427 31.6159 102.932 31.4303 102.468C31.2446 102.004 30.9694 101.582 30.6205 101.225L8.22451 78.0696C7.83184 77.6599 7.60623 77.1185 7.59186 76.5512V49.094C7.62311 48.8144 7.75675 48.5563 7.96702 48.3694C8.17729 48.1825 8.44931 48.08 8.73063 48.0818C8.89046 48.0639 9.05225 48.0801 9.20537 48.1292C9.35849 48.1784 9.49945 48.2594 9.61899 48.367C9.73852 48.4746 9.83392 48.6063 9.89889 48.7534C9.96386 48.9005 9.99694 49.0597 9.99594 49.2205L10.3755 70.8573C10.4021 71.6352 10.6671 72.3861 11.1347 73.0083L20.3715 84.9022C21.0585 85.7967 21.9721 86.4912 23.0177 86.9139C24.0633 87.3366 25.2029 87.4721 26.3184 87.3063L29.1021 86.9267C30.1145 86.7722 31.0743 86.3742 31.8989 85.7669C32.7235 85.1596 33.3884 84.3612 33.8365 83.4403C34.2845 82.5194 34.5022 81.5034 34.471 80.4798C34.4398 79.4561 34.1605 78.4554 33.6572 77.5635L28.596 68.4532C28.5555 68.2313 28.5818 68.0023 28.6716 67.7954C28.7614 67.5884 28.9107 67.4128 29.1004 67.2908C29.2902 67.1688 29.512 67.1059 29.7375 67.1101C29.9631 67.1143 30.1823 67.1854 30.3674 67.3145L44.5389 85.9145H44.6654C44.9593 86.2747 45.1359 86.7163 45.1715 87.1798L46.3103 111.853C46.3432 112.838 46.7575 113.771 47.4659 114.456C48.1742 115.141 49.121 115.523 50.1062 115.523H50.2328C50.7314 115.506 51.2218 115.392 51.6761 115.186C52.1304 114.98 52.5397 114.686 52.8805 114.322C53.2213 113.958 53.4869 113.53 53.6622 113.063C53.8375 112.596 53.9191 112.099 53.9022 111.6L52.6369 86.9267C52.5116 84.8934 51.7603 82.9487 50.4858 81.3594L36.5674 62.7593C35.2091 61.0761 33.2742 59.9571 31.1379 59.619C29.0015 59.2809 26.8157 59.7479 25.004 60.9295C23.1923 62.111 21.8837 63.923 21.3317 66.0143C20.7797 68.1057 21.0237 70.3274 22.0164 72.2492L26.1919 79.7145H25.9388L17.9674 69.3389Z" fill="black"/>
<path id="Path_2" d="M115.396 40.3633H115.269C112.963 40.3624 110.748 41.2607 109.094 42.8674C107.44 44.4741 106.478 46.6625 106.412 48.9674L106.033 69.3389L98.0611 79.7145H97.8081L101.984 72.2491C102.976 70.3274 103.22 68.1056 102.668 66.0143C102.116 63.923 100.808 62.111 98.996 60.9294C97.1843 59.7479 94.9985 59.2809 92.8621 59.619C90.7257 59.9571 88.7909 61.0761 87.4325 62.7593L73.5141 81.3594C72.2397 82.9487 71.4884 84.8934 71.3631 86.9267L70.2243 111.6C70.2075 112.099 70.289 112.596 70.4643 113.063C70.6396 113.53 70.9053 113.958 71.246 114.322C71.5868 114.686 71.9961 114.98 72.4504 115.186C72.9047 115.392 73.3952 115.506 73.8937 115.523H74.0203C75.0055 115.523 75.9523 115.141 76.6606 114.456C77.369 113.771 77.7834 112.838 77.8162 111.853L78.955 87.1798C78.9906 86.7162 79.1672 86.2747 79.4611 85.9145H79.5876L93.506 67.3144C93.6911 67.1854 93.9104 67.1143 94.1359 67.1101C94.3615 67.1059 94.5832 67.1687 94.773 67.2907C94.9628 67.4127 95.1121 67.5884 95.2019 67.7953C95.2917 68.0023 95.318 68.2313 95.2775 68.4532L90.2162 77.5634C89.7115 78.4642 89.435 79.4748 89.4107 80.507C89.3864 81.5392 89.6151 82.5617 90.0768 83.4852C90.5386 84.4087 91.2194 85.2051 92.0597 85.805C92.9001 86.4049 93.8745 86.79 94.8979 86.9267L97.6816 87.4328C98.7971 87.5986 99.9367 87.4631 100.982 87.0404C102.028 86.6177 102.942 85.9232 103.629 85.0288L112.865 73.0083C113.358 72.3513 113.624 71.5521 113.624 70.7308L114.004 49.094C114.004 48.792 114.124 48.5023 114.338 48.2887C114.551 48.0752 114.841 47.9552 115.143 47.9552H115.269C115.538 47.9552 115.795 48.0618 115.985 48.2517C116.175 48.4415 116.282 48.699 116.282 48.9674V76.5512C116.291 76.8536 116.239 77.1549 116.131 77.4373C116.022 77.7197 115.858 77.9777 115.649 78.1961L93.3795 101.225C93.0306 101.582 92.7554 102.004 92.5697 102.468C92.3841 102.932 92.2915 103.427 92.2974 103.927C92.3033 104.426 92.4074 104.919 92.604 105.378C92.8005 105.837 93.0855 106.253 93.4428 106.602C93.8 106.951 94.2225 107.226 94.6861 107.412C95.1497 107.598 95.6453 107.69 96.1446 107.684C96.644 107.679 97.1373 107.574 97.5964 107.378C98.0555 107.181 98.4714 106.896 98.8203 106.539L121.216 83.3839C122.993 81.5518 123.99 79.103 124 76.5512V48.9674C124 46.6855 123.093 44.497 121.48 42.8834C119.866 41.2698 117.678 40.3633 115.396 40.3633Z" fill="black"/>
</g>
</g>
</svg>
