<svg width="48" height="48" viewBox="0 0 48 48" fill="none" xmlns="http://www.w3.org/2000/svg">
<g id="Group 11">
<g id="Group 6">
<g id="Group">
<path id="Vector" fill-rule="evenodd" clip-rule="evenodd" d="M24.2882 0.741295C24.1406 0.593811 23.9524 0.493687 23.7476 0.453759C23.5428 0.41383 23.3307 0.435895 23.1386 0.517134C22.9464 0.598373 22.7828 0.735091 22.6687 0.909803C22.5547 1.08451 22.4953 1.28928 22.4983 1.49791L22.4983 45.6054C22.4976 45.7435 22.5243 45.8804 22.5767 46.0082C22.6291 46.1361 22.7062 46.2523 22.8036 46.3503C22.9011 46.4482 23.0169 46.5259 23.1445 46.5789C23.2721 46.6319 23.4089 46.6592 23.547 46.6592C23.6852 46.6592 23.822 46.6319 23.9495 46.5789C24.0771 46.5259 24.193 46.4481 24.2904 46.3502C24.3878 46.2523 24.465 46.1361 24.5174 46.0083C24.5698 45.8804 24.5964 45.7435 24.5957 45.6054L24.5957 1.4979C24.5976 1.35762 24.5714 1.21839 24.5186 1.08842C24.4658 0.958463 24.3874 0.840431 24.2882 0.741295Z" fill="#818080"/>
</g>
</g>
</g>
</svg>
