<svg width="27" height="38" viewBox="0 0 27 38" fill="none" xmlns="http://www.w3.org/2000/svg">
<g id="Group 7">
<g id="Group">
<path id="Vector" d="M13.2956 37.5C13.0516 37.5 12.8074 37.41 12.6171 37.2298C12.1019 36.7421 0 25.1502 0 13.2956C0 5.96442 5.96442 0 13.2956 0C20.6267 0 26.5912 5.96442 26.5912 13.2956C26.5912 25.1502 14.4892 36.7421 13.974 37.2298C13.7838 37.41 13.5396 37.5 13.2956 37.5ZM13.2956 1.97368C7.05264 1.97368 1.97368 7.05264 1.97368 13.2956C1.97368 22.754 10.7566 32.4979 13.2956 35.1164C15.8346 32.4979 24.6175 22.754 24.6175 13.2956C24.6175 7.05264 19.5385 1.97368 13.2956 1.97368ZM13.2956 20.5217C9.3085 20.5217 6.06484 17.2801 6.06484 13.2956C6.06484 9.3085 9.3085 6.06484 13.2956 6.06484C17.2826 6.06484 20.5263 9.3085 20.5263 13.2956C20.5263 17.2801 17.2826 20.5217 13.2956 20.5217ZM13.2956 8.03852C10.3969 8.03852 8.03852 10.3969 8.03852 13.2956C8.03852 16.1917 10.3969 18.548 13.2956 18.548C16.1942 18.548 18.5526 16.1917 18.5526 13.2956C18.5526 10.3969 16.1942 8.03852 13.2956 8.03852Z" fill="black"/>
</g>
</g>
</svg>
