<svg width="32" height="41" viewBox="0 0 32 41" fill="none" xmlns="http://www.w3.org/2000/svg">
<g id="Group 1">
<g id="Group">
<g id="Group_2">
<g id="Group_3">
<path id="Vector" d="M11.371 21.6768C5.91994 21.6768 2.1211 13.8757 2.1211 6.87455C2.1211 6.54159 2.11944 6.23507 2.11779 5.9527C2.10721 4.06964 2.10159 3.12431 2.70437 2.41176C3.22613 1.79477 3.96084 1.37848 4.88831 1.17381C5.24409 1.0961 5.59789 1.32061 5.67625 1.67739C5.75495 2.03416 5.52944 2.38696 5.17267 2.46533C4.53485 2.60585 4.04416 2.875 3.71384 3.2655C3.42651 3.60508 3.43147 4.43633 3.43973 5.94476C3.44138 6.22945 3.44304 6.53861 3.44304 6.87422C3.44304 13.929 7.22138 20.3538 11.3704 20.3538C15.5194 20.3538 19.2977 13.929 19.2977 6.87422C19.2977 6.32898 19.3172 5.84358 19.3344 5.41539C19.384 4.18372 19.3926 3.57631 19.0464 3.2288C18.5372 2.71695 17.7099 2.63726 17.1058 2.65909C16.7411 2.67529 16.434 2.38795 16.4204 2.02292C16.4065 1.65788 16.6915 1.35103 17.0566 1.33748C18.3041 1.29019 19.3146 1.6225 19.9842 2.2957C20.7526 3.0681 20.7119 4.07493 20.6557 5.46862C20.6392 5.88425 20.62 6.35576 20.62 6.87422C20.6207 13.8757 16.8221 21.6768 11.371 21.6768Z" fill="black"/>
<path id="Vector_2" d="M5.57032 3.63914C6.79894 3.63914 7.79494 2.82449 7.79494 1.81957C7.79494 0.814649 6.79894 0 5.57032 0C4.3417 0 3.3457 0.814649 3.3457 1.81957C3.3457 2.82449 4.3417 3.63914 5.57032 3.63914Z" fill="black"/>
<path id="Vector_3" d="M17.1607 3.63914C18.3893 3.63914 19.3853 2.82449 19.3853 1.81957C19.3853 0.814649 18.3893 0 17.1607 0C15.932 0 14.936 0.814649 14.936 1.81957C14.936 2.82449 15.932 3.63914 17.1607 3.63914Z" fill="black"/>
</g>
<path id="Vector_4" d="M9.13555 41C4.99812 41 1.62614 39.7227 0.434149 37.6667C-0.150772 36.6579 -0.144489 35.5724 0.452004 34.6102C1.09181 33.5782 2.42334 32.9381 3.96517 32.1971C5.6409 31.3913 7.54016 30.4784 8.97617 28.8803C10.479 27.2079 10.7402 25.065 10.7428 25.0435C10.808 24.4509 10.7759 21.5485 10.7425 21.242C10.7028 20.8789 10.965 20.5526 11.3281 20.5129C11.6921 20.4752 12.0175 20.7358 12.0572 21.0985C12.1054 21.5429 12.1289 24.5362 12.0572 25.1896C12.0456 25.2938 11.7553 27.7664 9.96019 29.7642C8.34926 31.5566 6.23607 32.5724 4.53851 33.3888C3.18351 34.0401 2.01334 34.6026 1.57655 35.3069C1.23994 35.8498 1.24094 36.4205 1.57853 37.0031C2.41276 38.4421 5.27851 39.8206 9.80478 39.6655C12.0109 39.5885 15.5462 37.4353 18.6656 35.5357C20.579 34.3705 22.386 33.2697 23.8888 32.619C24.2241 32.4738 24.6136 32.6279 24.7585 32.9632C24.9036 33.2985 24.7495 33.6877 24.4142 33.8328C22.9954 34.4468 21.2264 35.5244 19.3533 36.6652C15.9364 38.7463 12.4027 40.8982 9.85074 40.9871C9.6097 40.9957 9.3713 41 9.13555 41Z" fill="black"/>
<path id="Vector_5" d="M27.2739 29.3766C25.1736 29.3766 23.4648 31.0782 23.4648 33.1692C23.4648 35.2602 25.1733 36.9618 27.2739 36.9618C29.3746 36.9618 31.083 35.2606 31.083 33.1692C31.083 31.0782 29.3746 29.3766 27.2739 29.3766ZM27.2739 34.2428C26.6778 34.2428 26.1947 33.7621 26.1947 33.1692C26.1947 32.5764 26.6778 32.0956 27.2739 32.0956C27.8701 32.0956 28.3532 32.5764 28.3532 33.1692C28.3532 33.7621 27.8701 34.2428 27.2739 34.2428Z" fill="black"/>
</g>
</g>
</g>
</svg>
